<?xml version="1.0" encoding="utf-8"?>
<!-- Svg Vector Icons : http://www.onlinewebfonts.com/icon -->
<!DOCTYPE svg PUBLIC "-//W3C//DTD SVG 1.1//EN" "http://www.w3.org/Graphics/SVG/1.1/DTD/svg11.dtd">
<svg version="1.1" xmlns="http://www.w3.org/2000/svg" xmlns:xlink="http://www.w3.org/1999/xlink" x="0px" y="0px" viewBox="0 0 1000 1000" enable-background="new 0 0 1000 1000" xml:space="preserve">
<metadata> Svg Vector Icons : http://www.onlinewebfonts.com/icon </metadata>
<g><path d="M624.9,599.1c20.6,181.5-247.6,235.2-330.1,243.4c12.4-127.9-4.1-342.5,198-342.5c-20.6-12.4,33-132,86.6-193.9C649.6-23.9,385.6,79.3,270,124.6c-482.7,354.8-148.5,722.1-132,742.7C497.1,1201,904.2,653.4,789.9,479.5C777.5,486.9,674.4,595,624.9,599.1z M422.7,178.3c42.7,0,77.4,34.6,77.4,77.4c0,42.7-34.6,77.4-77.4,77.4c-42.7,0-77.4-34.6-77.4-77.4C345.3,212.9,379.9,178.3,422.7,178.3L422.7,178.3z M175.1,704.3c-42.7,0-77.4-34.6-77.4-77.4c0-42.7,34.6-77.4,77.4-77.4c42.7,0,77.4,34.6,77.4,77.4C252.5,669.7,217.9,704.3,175.1,704.3z M237,477.4c-42.7,0-77.4-34.6-77.4-77.4c0-42.7,34.6-77.4,77.4-77.4c42.7,0,77.4,34.6,77.4,77.4C314.4,442.8,279.7,477.4,237,477.4z M611.8,559.9C728.7,511.8,990,47.6,990,47.6L965.9,27c0,0-391.8,340.7-432.7,476.1C547.3,512.7,593.9,549.7,611.8,559.9L611.8,559.9z M532.7,504.9c0.2-0.6,0.4-1.2,0.6-1.8C528.5,499.8,527.5,499.6,532.7,504.9z M412.4,566.8c-58.4,44.7-41.3,178.8-72.2,226.9c65.3-48.1,161.6-34.4,213.2-120.3C570.5,625.3,539.6,504.9,412.4,566.8L412.4,566.8z"/></g>
</svg>