<?xml version="1.0" encoding="utf-8"?>
<!-- Svg Vector Icons : http://www.onlinewebfonts.com/icon -->
<!DOCTYPE svg PUBLIC "-//W3C//DTD SVG 1.1//EN" "http://www.w3.org/Graphics/SVG/1.1/DTD/svg11.dtd">
<svg version="1.1" xmlns="http://www.w3.org/2000/svg" xmlns:xlink="http://www.w3.org/1999/xlink" x="0px" y="0px" viewBox="0 0 1000 1000" enable-background="new 0 0 1000 1000" xml:space="preserve">
<metadata> Svg Vector Icons : http://www.onlinewebfonts.com/icon </metadata>
<g><path d="M500,10C229.4,10,10,229.4,10,500c0,270.6,219.4,490,490,490c270.6,0,490-219.4,490-490C990,229.4,770.6,10,500,10L500,10z M500,941C256.4,941,59,743.5,59,500C59,256.4,256.4,59,500,59c243.5,0,441,197.4,441,441C941,743.5,743.6,941,500,941L500,941z"/><path d="M780,343L608.8,489.7l-106.4,87l-105.6-86.4L224.7,343c-1,3.2-1.8,6.6-1.8,10.1v310.3c0,2,0.2,4,0.6,5.9c2.7,15.7,16.4,27.8,32.9,27.8H748c14.8,0,27.3-9.8,31.7-23.2l0.2,0.2c1.2-3.4,1.9-6.9,1.9-10.7V353.2C781.8,349.6,781.1,346.2,780,343L780,343z M454.5,497.8l47.9,39l48-39.1l24.3-19.8l183-156.7c-3-0.9-6.1-1.5-9.4-1.5H256.4c-3.3,0-6.4,0.6-9.4,1.5L430.2,478L454.5,497.8L454.5,497.8z"/></g>
</svg>