<?xml version="1.0" encoding="utf-8"?>
<!-- Svg Vector Icons : http://www.onlinewebfonts.com/icon -->
<!DOCTYPE svg PUBLIC "-//W3C//DTD SVG 1.1//EN" "http://www.w3.org/Graphics/SVG/1.1/DTD/svg11.dtd">
<svg version="1.1" xmlns="http://www.w3.org/2000/svg" xmlns:xlink="http://www.w3.org/1999/xlink" x="0px" y="0px" viewBox="0 0 1000 1000" enable-background="new 0 0 1000 1000" xml:space="preserve">
<metadata> Svg Vector Icons : http://www.onlinewebfonts.com/icon </metadata>
<g><g transform="matrix(1 0 0 -1 0 480)"><path d="M750.6,319.7c-96.7-9.1-87.1-91.2-78.6-125.8c82.3-53.3,134.6-146.2,134.6-255.7c0-172.5-139.8-303.3-312.3-303.3C321.8-365.1,182-234.3,182-61.8c0,103.2,54,191.4,134,245.9c8.6,22.9,35.2,111.7-57.2,136.3c-135.3-78.2-230-217.9-230-381.8C28.8-314.2,241.6-510,494.3-510S971.2-314.2,971.2-61.5C971.2,102,881.9,241.4,750.6,319.7L750.6,319.7z M503.4-108.8c31.6,0,70.8,37,70.8,68.5v439.4c0,54.2-41.5,70.8-73.1,70.8c-72.4,0-73.1-66.4-73.1-70.8V-40.3C428.1-71.8,471.8-108.8,503.4-108.8L503.4-108.8z"/></g></g>
</svg>