<?xml version="1.0" encoding="utf-8"?>
<!-- Svg Vector Icons : http://www.onlinewebfonts.com/icon -->
<!DOCTYPE svg PUBLIC "-//W3C//DTD SVG 1.1//EN" "http://www.w3.org/Graphics/SVG/1.1/DTD/svg11.dtd">
<svg version="1.1" xmlns="http://www.w3.org/2000/svg" xmlns:xlink="http://www.w3.org/1999/xlink" x="0px" y="0px" viewBox="0 0 1000 1000" enable-background="new 0 0 1000 1000" xml:space="preserve">
<metadata> Svg Vector Icons : http://www.onlinewebfonts.com/icon </metadata>
<g><path d="M500,122.5l377.1,376h-50.4h-46.7v46.7v351.5H218.6V545.2v-46.7h-46.7h-49L500,122.5 M500,56.6L10,545.2h161.9v398.2h654.8V545.2H990L500,56.6L500,56.6z"/><path d="M290,540.8h417.1v46.7H290V540.8L290,540.8z"/><path d="M290,648.8h417.1v46.7H290V648.8L290,648.8z"/><path d="M476.7,549.6h46.7v291.7h-46.7V549.6L476.7,549.6z"/><path d="M359,375.6l157.5,157.5l-33,33L326,408.6L359,375.6z"/><path d="M641,375.6l33,33L516.5,566.1l-33-33L641,375.6z"/></g>
</svg>