<?xml version="1.0" encoding="utf-8"?>
<!-- Svg Vector Icons : http://www.onlinewebfonts.com/icon -->
<!DOCTYPE svg PUBLIC "-//W3C//DTD SVG 1.1//EN" "http://www.w3.org/Graphics/SVG/1.1/DTD/svg11.dtd">
<svg version="1.1" xmlns="http://www.w3.org/2000/svg" xmlns:xlink="http://www.w3.org/1999/xlink" x="0px" y="0px" viewBox="0 0 1000 1000" enable-background="new 0 0 1000 1000" xml:space="preserve">
<metadata> Svg Vector Icons : http://www.onlinewebfonts.com/icon </metadata>
<g><g><g><path d="M757.3,156.4V124c0-10.2-8.3-18.5-18.5-18.5h-57c-10.2,0-18.5,8.3-18.5,18.5v32.4H500H336.7V124c0-10.2-8.3-18.5-18.5-18.5h-57c-10.2,0-18.5,8.3-18.5,18.5v32.4H117.9L10,271.9v23.1h19.2V876c0,10.2,8.3,18.5,18.5,18.5H500h452.3c10.2,0,18.5-8.3,18.5-18.5V295.1H990v-23.1L882.1,156.4H757.3z M222.6,774.7h-64.7V703h64.7V774.7z M222.6,460.3h-64.7v-71.6h64.7V460.3z M565.9,857.9H500h-65.9v-230c20.8-22,65.9-25.4,65.9-25.4s45.1,3.4,65.9,25.4V857.9z M583.2,473H500h-83.2v-126C450.3,324,500,324,500,324s49.7,0,83.2,23.1V473z M601.7,287.4H500H398.3c-10.2,0-12.1-5.3-4.4-11.9l92-77.8c7.8-6.6,20.5-6.6,28.2,0l92,77.8C613.8,282,611.9,287.4,601.7,287.4z M842,774.7h-64.7V703H842V774.7z M842,460.3h-64.7v-71.6H842V460.3z"/></g></g><g></g><g></g><g></g><g></g><g></g><g></g><g></g><g></g><g></g><g></g><g></g><g></g><g></g><g></g><g></g></g>
</svg>