<?xml version="1.0" encoding="utf-8"?>
<!-- Svg Vector Icons : http://www.onlinewebfonts.com/icon -->
<!DOCTYPE svg PUBLIC "-//W3C//DTD SVG 1.1//EN" "http://www.w3.org/Graphics/SVG/1.1/DTD/svg11.dtd">
<svg version="1.1" xmlns="http://www.w3.org/2000/svg" xmlns:xlink="http://www.w3.org/1999/xlink" x="0px" y="0px" viewBox="0 0 1000 1000" enable-background="new 0 0 1000 1000" xml:space="preserve">
<metadata> Svg Vector Icons : http://www.onlinewebfonts.com/icon </metadata>
<g><g><path d="M806.3,438.8c-30.6,0-61.3,0-61.3,0s0-61.3,0-183.8S622.5,10,500,10S255,132.5,255,255s0,183.8,0,183.8s-30.6,0-61.3,0c-30.6,0-61.2,30.6-61.2,61.3s0,398.1,0,428.8s30.6,61.3,61.2,61.3c30.6,0,581.9,0,612.5,0s61.3-30.6,61.3-61.3s0-398.1,0-428.8S836.9,438.8,806.3,438.8z M622.5,561.3H255v61.3h367.5v61.3H255V745h367.5v61.3H255v61.3h367.5v61.3H193.7V500h428.8V561.3z M622.5,438.8h-245c0,0,0-122.5,0-183.8S438.8,132.5,500,132.5S622.5,193.8,622.5,255S622.5,438.8,622.5,438.8z"/></g></g>
</svg>