<?xml version="1.0" encoding="utf-8"?>
<!-- Svg Vector Icons : http://www.onlinewebfonts.com/icon -->
<!DOCTYPE svg PUBLIC "-//W3C//DTD SVG 1.1//EN" "http://www.w3.org/Graphics/SVG/1.1/DTD/svg11.dtd">
<svg version="1.1" xmlns="http://www.w3.org/2000/svg" xmlns:xlink="http://www.w3.org/1999/xlink" x="0px" y="0px" viewBox="0 0 1000 1000" enable-background="new 0 0 1000 1000" xml:space="preserve">
<metadata> Svg Vector Icons : http://www.onlinewebfonts.com/icon </metadata>
<g><path d="M945.8,434.2v489.3c0,24.7-19.9,44.6-44.6,44.6H98.8c-24.7,0-44.6-19.9-44.6-44.6V434.2c-26.3-24.3-51.8-59.2-42.1-100.4l42.1-180.5V31.9h891.6v121.4l42.1,180.5C997.5,375,972.1,410,945.8,434.2z M903.3,389c3.1-9.3,4.5-19.5,2.1-29.8l-44.3-189.5c-0.4-1.5-1.3-2.6-1.7-4h-78.9c-3,9.2-4.3,19.2-1.9,29.4l44.3,189.5c0.4,1.5,1.3,2.6,1.7,4h76.7C901.9,388.6,902.5,389,903.3,389z M616,165.7c-2.1,7.4-3.2,15.2-1.9,23.4l29.7,193.2c0.4,2.3,1.6,4.1,2.2,6.3H726c2.1-7.4,3.2-15.2,1.9-23.4L698.2,172c-0.4-2.3-1.6-4.1-2.2-6.3H616z M459.6,165.7c-1.1,4.3-2.4,8.6-2.4,13.4v196.1c0,4.7,1.2,9,2.4,13.4h80.8c1.1-4.3,2.4-8.6,2.4-13.4V179c0-4.7-1.2-9-2.4-13.4H459.6z M303.9,165.7c-0.6,2.2-1.8,4-2.2,6.3l-29.7,193.2c-1.2,8.2-0.1,16,2,23.4h80.1c0.6-2.2,1.8-4,2.2-6.3L386,189.1c1.2-8.2,0.2-16-1.9-23.4H303.9z M143.4,878.9h713.3V477.7h-75.5l-5.2,0.4l-26.6-0.4H250.6l-26.6,0.4l-5.1-0.4h-75.5V878.9z M96.7,389c0.7,0,1.3-0.4,2.1-0.4h76.7c0.4-1.4,1.4-2.5,1.7-4l44.3-189.5c2.4-10.2,1-20.2-1.9-29.4h-78.9c-0.5,1.4-1.4,2.5-1.7,4L94.6,359.1C92.2,369.5,93.6,379.6,96.7,389z"/></g>
</svg>