<?xml version="1.0" encoding="utf-8"?>
<!-- Svg Vector Icons : http://www.onlinewebfonts.com/icon -->
<!DOCTYPE svg PUBLIC "-//W3C//DTD SVG 1.1//EN" "http://www.w3.org/Graphics/SVG/1.1/DTD/svg11.dtd">
<svg version="1.1" xmlns="http://www.w3.org/2000/svg" xmlns:xlink="http://www.w3.org/1999/xlink" x="0px" y="0px" viewBox="0 0 1000 1000" enable-background="new 0 0 1000 1000" xml:space="preserve">
<metadata> Svg Vector Icons : http://www.onlinewebfonts.com/icon </metadata>
<g><g><path d="M236.2,876.9h527.7V726.2H236.2V876.9z M236.2,500h527.7V273.8h-94.2c-15.7,0-29.1-5.5-40-16.5c-11-11-16.5-24.3-16.5-40v-94.2H236.2V500L236.2,500z M914.6,537.7c0-10.2-3.7-19-11.2-26.5c-7.5-7.5-16.3-11.2-26.5-11.2s-19,3.7-26.5,11.2c-7.5,7.5-11.2,16.3-11.2,26.5s3.7,19,11.2,26.5c7.5,7.5,16.3,11.2,26.5,11.2s19-3.7,26.5-11.2C910.9,556.7,914.6,547.9,914.6,537.7z M990,537.7v245c0,5.1-1.9,9.5-5.6,13.3c-3.7,3.7-8.1,5.6-13.3,5.6H839.2v94.2c0,15.7-5.5,29.1-16.5,40s-24.3,16.5-40,16.5H217.3c-15.7,0-29.1-5.5-40-16.5c-11-11-16.5-24.3-16.5-40v-94.2H28.8c-5.1,0-9.5-1.9-13.3-5.6c-3.7-3.7-5.6-8.1-5.6-13.3v-245c0-31,11.1-57.6,33.3-79.8s48.8-33.3,79.8-33.3h37.7V104.2c0-15.7,5.5-29.1,16.5-40c11-11,24.3-16.5,40-16.5h395.8c15.7,0,33,3.9,51.8,11.8c18.8,7.9,33.8,17.3,44.8,28.3l89.5,89.5c11,11,20.4,25.9,28.3,44.8c7.9,18.8,11.8,36.1,11.8,51.8v150.8h37.7c31,0,57.6,11.1,79.8,33.3C978.9,480.1,990,506.7,990,537.7L990,537.7z"/></g></g>
</svg>