<?xml version="1.0" encoding="utf-8"?>
<!-- Svg Vector Icons : http://www.onlinewebfonts.com/icon -->
<!DOCTYPE svg PUBLIC "-//W3C//DTD SVG 1.1//EN" "http://www.w3.org/Graphics/SVG/1.1/DTD/svg11.dtd">
<svg version="1.1" xmlns="http://www.w3.org/2000/svg" xmlns:xlink="http://www.w3.org/1999/xlink" x="0px" y="0px" viewBox="0 0 1000 1000" enable-background="new 0 0 1000 1000" xml:space="preserve">
<metadata> Svg Vector Icons : http://www.onlinewebfonts.com/icon </metadata>
<g><g transform="translate(0.000000,511.000000) scale(0.100000,-0.100000)"><path d="M4494,4985.8c-543.1-55.2-1146-230.1-1652.2-480.9c-998.7-494.7-1742-1235.7-2234.4-2234.4C-582.3-127.3,391.1-3042.9,2784.3-4257.9c2413.9-1226.5,5357-262.3,6583.5,2153.9c961.9,1891.5,596,4178.9-904.3,5676.9C7425.7,4613,5962.1,5133.1,4494,4985.8z M6631.8,2958.5l119.6-27.6l-570.7-570.7l-570.7-570.7l547.7-545.4l545.4-547.7l573,573c566.1,566.1,575.3,573,598.3,513.2c50.6-131.2,78.2-377.4,64.4-589.1c-34.5-616.7-384.3-1139.1-948.1-1419.8c-280.7-138.1-478.6-177.2-828.4-163.4c-151.9,6.9-315.3,25.3-363.6,41.4l-87.4,29.9L4498.6-1531c-826.1-823.8-1233.4-1215-1277.1-1226.5c-165.7-39.1-214-9.2-596,377.4l-363.6,363.6v124.3v126.6L3463.1-564.5L4664.3,636.6l-39.1,122c-239.3,775.5,71.3,1610.8,752.5,2008.9C5743.5,2981.5,6219.9,3055.1,6631.8,2958.5z"/></g></g>
</svg>