<?xml version="1.0" encoding="utf-8"?>
<!-- Svg Vector Icons : http://www.onlinewebfonts.com/icon -->
<!DOCTYPE svg PUBLIC "-//W3C//DTD SVG 1.1//EN" "http://www.w3.org/Graphics/SVG/1.1/DTD/svg11.dtd">
<svg version="1.1" xmlns="http://www.w3.org/2000/svg" xmlns:xlink="http://www.w3.org/1999/xlink" x="0px" y="0px" viewBox="0 0 1000 1000" enable-background="new 0 0 1000 1000" xml:space="preserve">
<metadata> Svg Vector Icons : http://www.onlinewebfonts.com/icon </metadata>
<g><g transform="translate(0.000000,511.000000) scale(0.100000,-0.100000)"><path d="M3113.4,4954.6c-549.4-1406.1-839.1-2152-882-2255.3l-52.9-133.6h262.1h259.6l98.3,272.1l98.3,269.6l493.9,7.5l493.9,5l105.8-277.2l105.8-277.2h267.1c241.9,0,264.6,5,249.5,45.4c-10.1,22.7-229.3,572-488.9,1219.7L3652.7,5010h-259.5C3148.7,5010,3133.6,5007.5,3113.4,4954.6z M3559.4,3981.9c85.7-231.8,156.2-430.9,156.2-441c0-10.1-148.7-17.6-330.1-17.6c-254.5,0-327.6,7.6-320,32.8c173.9,491.4,307.4,849.2,320,849.2C3395.6,4405.2,3473.8,4213.7,3559.4,3981.9z"/><path d="M6344,4627l-458.6-332.6l90.7-128.5c151.2-209.2,128.5-206.6,337.7-55.4c105.8,75.6,219.2,156.2,257,181.4l68,42.8V86.1v-4248.6l-257,186.5l-257.1,183.9l-108.3-141.1c-58-78.1-108.4-153.7-108.4-168.8c0-20.2,420.8-337.7,846.7-632.5l80.6-55.4l473.8,340.2c262.1,189,486.4,350.3,499,362.9c17.6,17.6-173.9,327.6-206.6,327.6c-5,0-131.1-85.7-279.7-189l-267.1-191.5l-7.6,2119.2c-2.5,1164.2-2.5,3069.3,0,4230.9l7.6,2114.2l259.5-189c143.6-103.3,274.7-181.4,292.3-176.4c35.3,15.1,229.3,289.8,214.2,304.9c-88.2,75.6-952.5,680.4-980.3,685.4C6820.2,4954.6,6595.9,4808.4,6344,4627z"/><path d="M3186.5,1986.1v-201.6h201.6h201.6v201.6v201.6h-201.6h-201.6V1986.1z"/><path d="M3186.5,373.3V171.7h201.6h201.6v201.6v201.6h-201.6h-201.6V373.3z"/><path d="M3186.5-1239.4V-1441h201.6h201.6v201.6v201.6h-201.6h-201.6V-1239.4z"/><path d="M2354.9-2423.8v-201.6h567c312.5,0,567-5,567-12.6c0-10.1-282.2-365.4-630-793.8l-630-778.7v-226.8v-229.3h982.8h982.8v201.6v201.6h-680.4c-372.9,0-680.4,7.6-680.4,20.2c0,10.1,294.8,380.5,655.2,824l655.2,806.4v196.6v194h-894.6h-894.6V-2423.8z"/></g></g>
</svg>